<svg width="1440" height="500" viewBox="0 0 1440 500" fill="none" xmlns="http://www.w3.org/2000/svg">
<rect width="1440" height="500" fill="#F2EDD5"/>
<path fill-rule="evenodd" clip-rule="evenodd" d="M1361.48 274.913C1256.99 369.317 1123.16 487.417 967.949 455.448C881.103 437.56 860.861 368.519 839.537 295.788C824.472 244.404 808.867 191.179 768.855 152.849C727.778 113.5 660.497 89.4799 595.766 66.3709C540.804 46.7495 487.681 27.7847 454 0.649902H1439.62V198.122C1415.36 224.66 1388.77 250.255 1361.48 274.913Z" fill="#F0F8FF"/>
<path fill-rule="evenodd" clip-rule="evenodd" d="M428.075 461.563C491.13 476.421 546.02 423.49 588.882 381.172C634.078 336.55 674.729 285.002 666.618 226.049C657.602 160.52 618.523 90.0868 545.925 68.9466C478.254 49.2411 421.505 107.829 358.391 136.294C301.82 161.809 209.095 167.18 206.093 222.218C203.052 277.966 307.612 280.753 348.129 324.439C387.132 366.493 367.868 447.375 428.075 461.563Z" fill="#F0F8FF"/>
</svg>
