<svg width="268" height="150" viewBox="0 0 268 150" fill="none" xmlns="http://www.w3.org/2000/svg">
<path d="M85.9442 107.276L49.2674 38.3027C49.2674 38.3027 49.3586 37.4546 49.541 35.7586C49.7234 34.0625 49.9059 32.1309 50.0884 29.9637C50.2709 27.7023 50.4533 25.7236 50.6359 24.0275C50.8183 22.3314 50.9095 21.4834 50.9095 21.4834C51.6394 17.9971 51.8675 15.4529 51.5938 13.8511C51.4114 12.155 50.499 11.0243 48.8567 10.459C47.3057 9.79941 44.751 9.42255 41.1928 9.32833L41.8771 6.50157C43.3369 6.59579 45.116 6.68994 47.2145 6.78416C49.4041 6.87839 51.685 6.92551 54.0572 6.92551C58.3452 6.92551 62.0403 6.78416 65.1423 6.50148L95.7975 68.1251C95.7975 68.1251 95.5695 69.4442 95.1133 72.0825C94.6572 74.7208 94.0641 77.9716 93.3342 81.8348C92.6955 85.6981 92.0113 89.6085 91.2814 93.566C90.6427 97.4292 90.0953 100.68 89.6392 103.318C89.183 105.957 88.9548 107.276 88.9548 107.276L85.9442 107.276ZM128.095 2.40273C125.814 2.40273 123.67 3.1565 121.663 4.66412C119.656 6.17174 117.922 8.00911 116.463 10.1763C112.266 16.5836 107.978 27.8437 103.598 43.9562C99.219 60.0688 94.338 81.1754 88.955 107.276L87.0391 103.318C88.6814 95.4034 90.506 86.8289 92.5132 77.5947C94.6116 68.2664 96.8013 59.1266 99.0822 50.1751C101.363 41.2237 103.735 33.1202 106.199 25.8649C108.753 18.6095 111.353 13.0031 113.999 9.04565C115.733 6.50156 117.786 4.38148 120.158 2.68542C122.53 0.895135 125.404 0 128.779 0C133.615 0 137.493 1.46044 140.412 4.38143C143.332 7.30243 144.791 10.883 144.791 15.1232C144.791 19.646 143.286 23.2737 140.275 26.0062C137.356 28.6445 133.752 29.9637 129.464 29.9637C125.814 29.9637 122.849 29.0686 120.568 27.2783C118.379 25.3938 117.284 22.8026 117.284 19.5047C117.284 15.2646 118.652 11.7311 121.389 8.9043C124.126 5.98331 127.502 4.19304 131.517 3.53347C131.152 3.15657 130.65 2.87388 130.011 2.68542C129.464 2.49697 128.825 2.40273 128.095 2.40273ZM16.6961 114.625C19.2507 114.625 21.4861 113.872 23.402 112.364C25.318 110.951 27.0058 109.066 28.4656 106.71C31.1114 102.376 33.7573 95.5918 36.4031 86.3577C39.1402 77.1236 41.8773 65.9579 44.6143 52.8605C47.4426 39.7632 50.271 25.3937 53.0993 9.75227L55.4258 12.7205C53.6011 22.3315 51.6851 32.1309 49.6779 42.1188C47.6708 52.1067 45.5724 61.5764 43.3827 70.5278C41.2843 79.4792 39.1402 87.3 36.9506 93.99C34.8521 100.586 32.7537 105.297 30.6552 108.124C29.013 110.385 27.0514 112.411 24.7705 114.201C22.5809 116.086 19.6613 117.028 16.0119 117.028C11.1764 117.028 7.29887 115.568 4.37932 112.647C1.45977 109.726 0 106.145 0 101.905C0 97.3821 1.5054 93.8016 4.51618 91.1633C7.52696 88.4307 11.1307 87.0644 15.3276 87.0644C19.0683 87.0644 22.0334 88.0067 24.2231 89.8912C26.4128 91.6815 27.5076 94.2256 27.5076 97.5235C27.5076 101.764 26.1391 105.297 23.402 108.124C20.665 110.951 17.2892 112.741 13.2748 113.495C13.6398 113.872 14.0959 114.154 14.6433 114.343C15.282 114.531 15.9662 114.625 16.6961 114.625Z" fill="#D98841"/>
<path d="M118.259 75.9234C117.613 75.9234 116.853 76.4927 115.979 77.6313C115.104 78.7306 114.211 80.2225 113.298 82.107C112.386 83.9915 111.531 86.092 110.732 88.4083C109.972 90.7247 109.345 93.1 108.851 95.5342C108.395 97.9683 108.166 100.285 108.166 102.483C108.166 103.7 108.243 104.564 108.395 105.075C108.585 105.546 108.87 105.781 109.251 105.781C109.859 105.781 110.581 105.251 111.418 104.191C112.292 103.131 113.166 101.698 114.041 99.8921C114.953 98.0861 115.789 96.0445 116.55 93.7674C117.348 91.4903 117.994 89.115 118.488 86.6415C118.983 84.1289 119.23 81.6948 119.23 79.3391C119.23 77.8472 119.135 76.905 118.945 76.5124C118.755 76.1198 118.527 75.9234 118.26 75.9234H118.259ZM98.7009 96.9475C98.7009 94.6311 99.081 92.197 99.8413 89.645C100.64 87.0538 101.856 84.6393 103.491 82.4014C105.125 80.1244 107.178 78.279 109.649 76.8657C112.158 75.4523 115.123 74.7456 118.545 74.7456C121.852 74.7456 124.361 75.6094 126.072 77.3368C127.82 79.0643 128.694 81.5377 128.694 84.757C128.694 87.0734 128.295 89.5272 127.497 92.1184C126.737 94.6704 125.539 97.0849 123.905 99.362C122.27 101.6 120.198 103.426 117.689 104.839C115.218 106.252 112.272 106.959 108.851 106.959C105.543 106.959 103.015 106.095 101.267 104.368C99.5562 102.64 98.7009 100.167 98.7009 96.9475Z" fill="#D98841"/>
<path d="M149.622 78.6907C149.013 78.6907 148.367 79.044 147.683 79.7507C147.037 80.4574 146.39 81.439 145.744 82.6953C145.098 83.9516 144.49 85.3846 143.919 86.9943C143.349 88.604 142.855 90.3119 142.437 92.1178L143.52 86.3466C145.041 82.2635 146.58 79.3189 148.139 77.5129C149.736 75.6676 151.617 74.745 153.784 74.745C156.445 74.745 158.403 75.5891 159.658 77.2773C160.95 78.9263 161.596 81.2819 161.596 84.3443C161.596 86.1896 161.33 88.1525 160.798 90.2333C160.266 92.2749 159.486 94.2968 158.46 96.2991C157.434 98.2621 156.179 100.048 154.697 101.658C153.214 103.268 151.503 104.563 149.565 105.545C147.664 106.487 145.535 106.958 143.178 106.958C142.114 106.958 141.144 106.801 140.27 106.487C139.434 106.173 138.768 105.8 138.274 105.368L138.673 104.603C138.977 104.72 139.281 104.819 139.586 104.897C139.89 104.976 140.232 105.015 140.612 105.015C141.638 105.015 142.646 104.544 143.634 103.601C144.661 102.62 145.611 101.324 146.485 99.7146C147.36 98.0656 148.139 96.2401 148.823 94.2378C149.507 92.2355 150.04 90.1939 150.42 88.1131C150.8 85.993 150.99 83.9711 150.99 82.0473C150.99 80.6732 150.876 79.7702 150.648 79.3384C150.42 78.9065 150.078 78.6906 149.622 78.6906V78.6907ZM138.844 105.722C137.362 105.29 135.746 105.27 133.997 105.663C132.287 106.016 130.671 106.487 129.15 107.076L128.295 106.664C128.561 106.114 128.808 105.564 129.037 105.015C129.226 104.426 129.398 103.817 129.55 103.189L140.042 66.8535C140.422 65.5186 140.384 64.5371 139.929 63.9089C139.473 63.2807 138.313 62.9666 136.451 62.9666L136.85 61.7299C139.967 61.6906 142.723 61.4746 145.118 61.0821C147.551 60.6503 149.889 60.0614 152.132 59.3154L138.844 105.722Z" fill="#D98841"/>
<path d="M173.172 106.134H163.079L170.036 80.5758C170.264 79.6728 170.34 79.0446 170.265 78.6912C170.189 78.2987 169.942 78.1024 169.523 78.1024C168.953 78.1024 168.421 78.3772 167.926 78.9269C167.432 79.4373 166.919 80.3992 166.387 81.8125L165.075 85.4048H163.992L165.589 80.8114C166.349 78.6128 167.451 77.062 168.896 76.159C170.379 75.2168 172.108 74.7456 174.085 74.7456C175.834 74.7456 177.107 75.1775 177.906 76.0412C178.704 76.8657 179.16 77.9257 179.274 79.2213C179.427 80.4777 179.35 81.734 179.045 82.9903L173.172 106.134ZM187.713 75.9234C186.99 75.9234 186.211 76.0412 185.374 76.2768C184.576 76.5123 183.721 77.1209 182.809 78.1024C181.934 79.0447 180.984 80.5758 179.958 82.6959C178.969 84.816 177.905 87.7605 176.764 91.5295C175.624 95.2985 174.426 100.108 173.172 105.958L174.369 97.7131C175.51 93.1196 176.555 89.3505 177.506 86.406C178.456 83.4222 179.406 81.0862 180.357 79.398C181.307 77.6705 182.352 76.4731 183.493 75.8057C184.633 75.099 185.964 74.7456 187.484 74.7456C189.271 74.7456 190.64 75.2953 191.59 76.3946C192.54 77.4939 193.016 78.8484 193.016 80.458C193.016 82.4211 192.407 84.1486 191.191 85.6405C190.012 87.0931 188.473 87.8194 186.572 87.8194C185.166 87.8194 184.101 87.4465 183.379 86.7005C182.657 85.9546 182.295 84.8552 182.295 83.4026C182.295 81.6751 182.904 80.1046 184.12 78.6912C185.375 77.2779 186.838 76.4142 188.511 76.1001C188.396 76.0608 188.263 76.0215 188.112 75.9823C187.998 75.9429 187.865 75.9233 187.713 75.9233V75.9234Z" fill="#D98841"/>
<path d="M200.029 93.7674C201.246 93.1785 202.443 92.4718 203.622 91.6473C204.8 90.8229 205.884 89.9199 206.872 88.9383C208.393 87.4072 209.628 85.6601 210.579 83.6971C211.567 81.734 212.061 79.614 212.061 77.3368C212.061 76.7872 211.985 76.4142 211.832 76.2178C211.68 75.9823 211.451 75.8645 211.148 75.8645C210.198 75.8645 209.152 76.532 208.012 77.8668C206.871 79.2017 205.788 80.9292 204.762 83.0492C203.735 85.1693 202.899 87.466 202.252 89.9395C201.606 92.4129 201.283 94.7686 201.283 97.0064C201.283 99.2835 201.72 100.815 202.595 101.6C203.469 102.346 204.61 102.719 206.016 102.719C206.776 102.719 207.917 102.424 209.437 101.835C210.958 101.247 212.479 100.167 213.999 98.5965L214.911 99.0675C214.075 100.363 212.973 101.62 211.604 102.837C210.236 104.054 208.62 105.055 206.757 105.84C204.895 106.586 202.804 106.959 200.485 106.959C197.824 106.959 195.505 106.272 193.528 104.898C191.589 103.484 190.62 101.404 190.62 98.6554C190.62 96.339 190.962 94.0422 191.646 91.7651C192.369 89.488 193.376 87.3287 194.669 85.2871C195.961 83.2456 197.501 81.4395 199.287 79.8691C201.112 78.2594 203.127 77.0031 205.332 76.1001C207.537 75.1971 209.894 74.7456 212.403 74.7456C214.417 74.7456 216.09 75.1775 217.421 76.0412C218.789 76.8657 219.473 78.1613 219.473 79.928C219.473 81.4199 219.093 82.8333 218.333 84.1681C217.573 85.4637 216.527 86.6612 215.197 87.7605C213.866 88.8206 212.364 89.7824 210.692 90.6462C209.019 91.5099 207.252 92.2559 205.389 92.884C203.564 93.5122 201.758 94.0029 199.972 94.3563L200.029 93.7674Z" fill="#D98841"/>
<path d="M154.594 39.7406C154.594 39.0444 154.682 38.2015 154.86 37.2122C155.073 36.1862 155.481 34.9952 156.084 33.6394C156.687 32.2836 157.432 31.0561 158.32 29.9568C159.207 28.8575 160.448 27.9231 162.045 27.1536C163.642 26.3474 165.451 25.9443 167.474 25.9443C171.057 25.9443 174.126 27.2085 176.681 29.7369V28.1429C176.681 27.1535 177.053 26.6589 177.798 26.6589C178.508 26.6589 178.863 27.1535 178.863 28.1429V34.2991C178.863 35.2884 178.49 35.7831 177.745 35.7831C177.107 35.7831 176.752 35.3434 176.681 34.4639C176.575 32.7783 175.599 31.3126 173.754 30.0667C171.944 28.8208 169.851 28.1979 167.474 28.1979C164.529 28.1979 162.01 29.3705 159.916 31.7157C157.823 34.0242 156.776 36.809 156.776 40.0703V43.9728C156.776 47.2707 157.929 50.1473 160.235 52.6024C162.542 55.0208 165.256 56.23 168.378 56.23C170.223 56.23 171.873 55.8453 173.328 55.0758C174.783 54.3063 176.22 53.042 177.639 51.2831C177.958 50.9167 178.277 50.7335 178.597 50.7335C179.306 50.7335 179.661 51.0816 179.661 51.7778C179.661 52.1076 179.377 52.6207 178.81 53.3169C178.242 54.0131 177.497 54.7643 176.574 55.5705C175.652 56.34 174.445 57.0179 172.955 57.6042C171.465 58.1904 169.94 58.4836 168.378 58.4836C164.759 58.4836 161.548 57.0545 158.745 54.1963C155.978 51.3015 154.594 48.0036 154.594 44.3026L154.594 39.7406Z" fill="#D98841"/>
<path d="M206.431 41.7742C206.431 40.1252 205.828 38.7877 204.621 37.7617C203.415 36.699 201.836 36.1677 199.885 36.1677C198.394 36.1677 197.152 36.4791 196.159 37.1021C195.201 37.6884 193.995 38.861 192.54 40.6199L191.955 41.3344V55.3505H194.35C195.343 55.3505 195.84 55.7169 195.84 56.4498C195.84 57.2193 195.343 57.6041 194.35 57.6041H187.325C186.367 57.6041 185.888 57.2193 185.888 56.4498C185.888 55.7169 186.367 55.3505 187.325 55.3505H189.773V26.6588H186.899C185.941 26.6588 185.462 26.274 185.462 25.5046C185.462 24.7717 185.941 24.4053 186.899 24.4053H191.955V38.5312C193.303 36.8456 194.598 35.6548 195.84 34.9585C197.082 34.2623 198.519 33.9142 200.151 33.9142C202.634 33.9142 204.657 34.6471 206.218 36.1128C207.815 37.5419 208.613 39.3741 208.613 41.6093V55.3505H211.008C212.001 55.3505 212.498 55.7169 212.498 56.4498C212.498 57.2193 212.001 57.6041 211.008 57.6041H204.036C203.078 57.6041 202.599 57.2193 202.599 56.4498C202.599 55.7169 203.078 55.3505 204.036 55.3505H206.431V41.7742Z" fill="#D98841"/>
<path d="M235.436 24.6249L229.369 30.1214C228.943 30.4512 228.606 30.6161 228.358 30.6161C228.074 30.6161 227.826 30.5061 227.613 30.2863C227.4 30.0664 227.293 29.7916 227.293 29.4618C227.293 29.1687 227.506 28.8205 227.932 28.4175L233.999 22.921C234.425 22.5912 234.762 22.4263 235.01 22.4263C235.294 22.4263 235.543 22.5362 235.756 22.7561C235.968 22.976 236.075 23.2508 236.075 23.5805C236.075 23.8737 235.862 24.2219 235.436 24.6249ZM221.759 36.8272C221.759 36.021 222.965 35.343 225.377 34.7934C227.79 34.2071 229.671 33.9139 231.019 33.9139C233.502 33.9139 235.543 34.5552 237.139 35.8378C238.771 37.1203 239.587 38.7326 239.587 40.6747V55.3503H242.461C243.419 55.3503 243.898 55.7167 243.898 56.4496C243.898 57.2191 243.419 57.6039 242.461 57.6039H237.405V53.9212C234.248 56.9626 230.859 58.4833 227.24 58.4833C224.756 58.4833 222.752 57.842 221.226 56.5595C219.7 55.2403 218.938 53.5364 218.938 51.4478C218.938 49.066 219.967 47.1422 222.024 45.6765C224.118 44.1741 226.832 43.4229 230.167 43.4229C232.261 43.4229 234.673 43.8077 237.405 44.5772V40.6747C237.405 39.3189 236.802 38.2379 235.596 37.4317C234.389 36.5889 232.811 36.1675 230.859 36.1675C229.227 36.1675 227.542 36.4607 225.803 37.047C224.065 37.6333 223.053 37.9264 222.77 37.9264C222.486 37.9264 222.237 37.8165 222.024 37.5966C221.847 37.3767 221.758 37.1203 221.758 36.8272H221.759ZM237.405 51.4478V46.5009C235.277 45.9513 233.006 45.6765 230.593 45.6765C227.79 45.6765 225.502 46.2261 223.728 47.3254C221.989 48.3881 221.12 49.7804 221.12 51.5027C221.12 52.9318 221.67 54.0861 222.77 54.9655C223.869 55.8083 225.342 56.2297 227.187 56.2297C229.067 56.2297 230.788 55.8633 232.349 55.1305C233.946 54.3976 235.631 53.17 237.405 51.4478Z" fill="#D98841"/>
<path opacity="0.97" d="M265.509 52.1405C264.992 51.9193 264.424 51.8512 263.871 51.9444C263.317 52.0375 262.802 52.2879 262.385 52.6662L229.889 82.2009C217.099 93.825 220.82 114.774 233.862 121.025C246.877 127.264 265.408 117.136 265.938 99.7476L267.306 54.9723C267.324 54.3725 267.162 53.7811 266.841 53.2758C266.521 52.7705 266.056 52.3748 265.509 52.1405ZM261.198 61.7594L260.042 99.5648C259.642 112.672 245.007 119.779 236.392 115.65C227.804 111.533 224.157 95.419 233.833 86.6255L261.198 61.7594Z" fill="#D98841"/>
<path d="M261.946 56.2607L218.478 148.614L221.387 150L264.856 57.6469L261.946 56.2607Z" fill="#D98841"/>
</svg>
