<svg width="84" height="50" viewBox="0 0 84 50" fill="none" xmlns="http://www.w3.org/2000/svg">
<g clip-path="url(#clip0)">
<path d="M28.3325 33.9654L18.0817 14.8062C18.0817 14.8062 18.1072 14.5706 18.1582 14.0994C18.2092 13.6283 18.2602 13.0918 18.3112 12.4898C18.3622 11.8616 18.4132 11.3119 18.4642 10.8408C18.5152 10.3697 18.5407 10.1341 18.5407 10.1341C18.7447 9.16569 18.8084 8.45899 18.732 8.01404C18.681 7.54291 18.426 7.22882 17.967 7.07178C17.5335 6.88856 16.8195 6.78388 15.825 6.75771L16.0163 5.9725C16.4243 5.99867 16.9215 6.02482 17.508 6.051C18.12 6.07717 18.7575 6.09026 19.4204 6.09026C20.6189 6.09026 21.6516 6.05099 22.5186 5.97247L31.0863 23.0902C31.0863 23.0902 31.0226 23.4566 30.8951 24.1894C30.7676 24.9223 30.6019 25.8253 30.3979 26.8984C30.2194 27.9715 30.0281 29.0578 29.8241 30.1571C29.6456 31.2302 29.4927 32.1332 29.3652 32.8661C29.2377 33.5989 29.1739 33.9653 29.1739 33.9653L28.3325 33.9654ZM40.1132 4.83393C39.4757 4.83393 38.8764 5.04331 38.3154 5.46209C37.7545 5.88088 37.27 6.39126 36.862 6.99325C35.689 8.77308 34.4905 11.9009 33.2666 16.3766C32.0426 20.8523 30.6784 26.7152 29.174 33.9654L28.6385 32.8661C29.0975 30.6675 29.6074 28.2857 30.1684 25.7206C30.7549 23.1294 31.3669 20.5906 32.0044 18.104C32.6418 15.6175 33.3048 13.3666 33.9933 11.3512C34.7073 9.33581 35.434 7.77849 36.1735 6.67919C36.658 5.97249 37.2317 5.38358 37.8947 4.91245C38.5577 4.41515 39.3609 4.1665 40.3044 4.1665C41.6558 4.1665 42.7396 4.57218 43.5555 5.38357C44.3715 6.19496 44.7795 7.18957 44.7795 8.36739C44.7795 9.62374 44.3588 10.6314 43.5173 11.3905C42.7013 12.1233 41.6941 12.4898 40.4956 12.4898C39.4757 12.4898 38.6469 12.2411 38.0095 11.7438C37.3975 11.2203 37.0915 10.5006 37.0915 9.58449C37.0915 8.40666 37.474 7.42514 38.2389 6.63992C39.0039 5.82854 39.9474 5.33124 41.0694 5.14802C40.9674 5.04333 40.8271 4.9648 40.6486 4.91245C40.4956 4.86011 40.3172 4.83393 40.1132 4.83393ZM8.97849 36.0069C9.69247 36.0069 10.3172 35.7975 10.8527 35.3787C11.3882 34.9861 11.8599 34.4627 12.2679 33.8083C13.0074 32.6043 13.7469 30.7198 14.4864 28.1548C15.2513 25.5897 16.0163 22.4882 16.7813 18.85C17.5718 15.2118 18.3623 11.2203 19.1527 6.87547L19.8029 7.69997C19.293 10.3697 18.7575 13.0918 18.1965 15.8662C17.6355 18.6406 17.049 21.2711 16.4371 23.7576C15.8506 26.2441 15.2513 28.4165 14.6394 30.2749C14.0529 32.107 13.4664 33.4157 12.8799 34.2009C12.4209 34.8291 11.8727 35.3918 11.2352 35.8891C10.6232 36.4126 9.80723 36.6744 8.78726 36.6744C7.4358 36.6744 6.35208 36.2687 5.5361 35.4573C4.72012 34.6459 4.31213 33.6513 4.31213 32.4734C4.31213 31.2171 4.73287 30.2225 5.57435 29.4897C6.41582 28.7306 7.42304 28.3511 8.59601 28.3511C9.64148 28.3511 10.4702 28.6128 11.0822 29.1363C11.6942 29.6336 12.0002 30.3403 12.0002 31.2564C12.0002 32.4342 11.6177 33.4157 10.8527 34.2009C10.0877 34.9861 9.14425 35.4835 8.02228 35.6928C8.12428 35.7975 8.25176 35.8761 8.40476 35.9284C8.58325 35.9808 8.7745 36.0069 8.97849 36.0069Z" fill="#D98841"/>
<path d="M37.3642 25.2564C37.1836 25.2564 36.9711 25.4145 36.7267 25.7308C36.4824 26.0361 36.2327 26.4506 35.9777 26.974C35.7227 27.4975 35.4836 28.081 35.2605 28.7244C35.048 29.3678 34.8727 30.0276 34.7346 30.7038C34.6071 31.38 34.5433 32.0234 34.5433 32.6341C34.5433 32.9722 34.5647 33.2121 34.6073 33.3539C34.6604 33.4848 34.7401 33.5502 34.8464 33.5502C35.0164 33.5502 35.2183 33.403 35.452 33.1085C35.6964 32.814 35.9407 32.416 36.1851 31.9143C36.4401 31.4127 36.6738 30.8456 36.8863 30.213C37.1094 29.5805 37.29 28.9207 37.4282 28.2336C37.5663 27.5357 37.6354 26.8595 37.6354 26.2052C37.6354 25.7908 37.6088 25.529 37.5557 25.42C37.5026 25.3109 37.4388 25.2564 37.3644 25.2564H37.3642ZM31.8978 31.0964C31.8978 30.453 32.0041 29.7768 32.2165 29.0679C32.4397 28.3481 32.7797 27.6775 33.2365 27.0558C33.6934 26.4233 34.2671 25.9107 34.9577 25.5181C35.659 25.1255 36.4877 24.9292 37.4439 24.9292C38.3683 24.9292 39.0695 25.1691 39.5476 25.649C40.0363 26.1288 40.2806 26.8159 40.2806 27.7102C40.2806 28.3536 40.1691 29.0352 39.946 29.755C39.7335 30.4639 39.3988 31.1346 38.942 31.7671C38.4851 32.3887 37.9061 32.8958 37.2049 33.2884C36.5142 33.6811 35.6908 33.8773 34.7346 33.8773C33.8102 33.8773 33.1037 33.6374 32.615 33.1576C32.1369 32.6777 31.8978 31.9907 31.8978 31.0964Z" fill="#D98841"/>
<path d="M46.1296 26.0251C45.9596 26.0251 45.7789 26.1232 45.5877 26.3195C45.4071 26.5158 45.2264 26.7885 45.0458 27.1375C44.8652 27.4865 44.6952 27.8845 44.5358 28.3316C44.3765 28.7788 44.2384 29.2532 44.1215 29.7549L44.4243 28.1517C44.8493 27.0175 45.2796 26.1996 45.7151 25.6979C46.1614 25.1853 46.6873 24.9291 47.2929 24.9291C48.0367 24.9291 48.5839 25.1635 48.9345 25.6325C49.2957 26.0905 49.4763 26.7449 49.4763 27.5955C49.4763 28.1081 49.402 28.6534 49.2532 29.2314C49.1044 29.7985 48.8867 30.3601 48.5998 30.9163C48.3129 31.4616 47.9623 31.9578 47.5479 32.405C47.1336 32.8521 46.6555 33.212 46.1136 33.4846C45.5824 33.7464 44.9874 33.8772 44.3286 33.8772C44.0312 33.8772 43.7602 33.8336 43.5158 33.7464C43.2821 33.6591 43.0962 33.5555 42.9581 33.4356L43.0696 33.2229C43.1546 33.2556 43.2396 33.2828 43.3246 33.3046C43.4096 33.3264 43.5052 33.3374 43.6115 33.3374C43.8983 33.3374 44.1799 33.2065 44.4562 32.9447C44.7431 32.6721 45.0087 32.3122 45.253 31.8651C45.4974 31.407 45.7152 30.8999 45.9064 30.3437C46.0976 29.7875 46.2464 29.2204 46.3526 28.6424C46.4589 28.0535 46.5121 27.4919 46.5121 26.9575C46.5121 26.5758 46.4802 26.325 46.4164 26.205C46.3527 26.085 46.2571 26.0251 46.1296 26.0251V26.0251ZM43.1175 33.5337C42.7031 33.4138 42.2515 33.4083 41.7628 33.5173C41.2847 33.6155 40.8331 33.7463 40.4081 33.9099L40.1691 33.7954C40.2435 33.6427 40.3125 33.49 40.3763 33.3374C40.4293 33.1738 40.4772 33.0047 40.5197 32.8302L43.4521 22.737C43.5584 22.3662 43.5478 22.0935 43.4205 21.919C43.293 21.7445 42.969 21.6573 42.4484 21.6573L42.5599 21.3138C43.4312 21.3028 44.2015 21.2428 44.8708 21.1338C45.5508 21.0139 46.2042 20.8503 46.8311 20.6431L43.1175 33.5337Z" fill="#D98841"/>
<path d="M52.7116 33.6483H49.8907L51.835 26.5487C51.8988 26.2979 51.9201 26.1234 51.899 26.0252C51.878 25.9162 51.8089 25.8617 51.6918 25.8617C51.5325 25.8617 51.3837 25.938 51.2456 26.0907C51.1075 26.2324 50.964 26.4996 50.8153 26.8922L50.4487 27.8901H50.1459L50.5922 26.6141C50.8046 26.0034 51.1128 25.5726 51.5165 25.3218C51.9309 25.0601 52.4143 24.9292 52.9668 24.9292C53.4555 24.9292 53.8115 25.0492 54.0346 25.2891C54.2577 25.5181 54.3852 25.8126 54.4171 26.1725C54.4597 26.5214 54.4384 26.8704 54.3531 27.2194L52.7116 33.6483ZM56.7755 25.2564C56.5737 25.2564 56.3558 25.2891 56.1221 25.3545C55.8989 25.42 55.6599 25.589 55.4049 25.8617C55.1606 26.1234 54.895 26.5487 54.6081 27.1376C54.3319 27.7265 54.0344 28.5445 53.7156 29.5914C53.3969 30.6384 53.0622 31.9743 52.7116 33.5993L53.0463 31.3091C53.365 30.0331 53.6572 28.9861 53.9228 28.1682C54.1884 27.3394 54.454 26.6905 54.7197 26.2215C54.9852 25.7417 55.2774 25.4091 55.5962 25.2237C55.9149 25.0274 56.2868 24.9292 56.7118 24.9292C57.2111 24.9292 57.5936 25.0819 57.8592 25.3872C58.1249 25.6926 58.2577 26.0689 58.2577 26.516C58.2577 27.0613 58.0877 27.5411 57.7476 27.9556C57.4183 28.3591 56.988 28.5608 56.4567 28.5608C56.0637 28.5608 55.7662 28.4572 55.5643 28.25C55.3624 28.0428 55.2615 27.7374 55.2615 27.3339C55.2615 26.8541 55.4315 26.4178 55.7715 26.0252C56.1221 25.6326 56.5312 25.3927 56.9986 25.3055C56.9665 25.2945 56.9293 25.2836 56.887 25.2727C56.8554 25.2618 56.8183 25.2563 56.7755 25.2563V25.2564Z" fill="#D98841"/>
<path d="M60.2178 30.213C60.5579 30.0494 60.8925 29.8531 61.2219 29.6241C61.5512 29.3951 61.8541 29.1443 62.1303 28.8716C62.5553 28.4463 62.9006 27.961 63.1662 27.4157C63.4425 26.8704 63.5806 26.2815 63.5806 25.649C63.5806 25.4963 63.5593 25.3927 63.5166 25.3382C63.4739 25.2727 63.4102 25.24 63.3254 25.24C63.0598 25.24 62.7676 25.4254 62.4489 25.7962C62.1301 26.167 61.8273 26.6469 61.5404 27.2358C61.2536 27.8247 61.0198 28.4627 60.8392 29.1497C60.6586 29.8368 60.5683 30.4911 60.5683 31.1128C60.5683 31.7453 60.6904 32.1706 60.9348 32.3887C61.1792 32.5959 61.4979 32.6995 61.891 32.6995C62.1035 32.6995 62.4223 32.6178 62.8472 32.4542C63.2722 32.2906 63.6973 31.9907 64.1223 31.5544L64.3772 31.6853C64.1435 32.0452 63.8354 32.3942 63.4529 32.7323C63.0704 33.0703 62.6189 33.3484 62.0982 33.5665C61.5776 33.7738 60.9932 33.8773 60.3452 33.8773C59.6014 33.8773 58.9533 33.6865 58.4008 33.3048C57.8589 32.9122 57.588 32.3342 57.588 31.5708C57.588 30.9274 57.6836 30.2894 57.8749 29.6568C58.0768 29.0243 58.3583 28.4245 58.7196 27.8574C59.0808 27.2903 59.5111 26.7886 60.0105 26.3524C60.5205 25.9053 61.0836 25.5563 61.6998 25.3055C62.316 25.0546 62.9748 24.9292 63.676 24.9292C64.2391 24.9292 64.7066 25.0492 65.0785 25.2891C65.461 25.5181 65.6522 25.878 65.6522 26.3688C65.6522 26.7832 65.5459 27.1758 65.3334 27.5466C65.1209 27.9065 64.8288 28.2391 64.4569 28.5445C64.085 28.8389 63.6654 29.1061 63.1979 29.346C62.7304 29.586 62.2364 29.7932 61.7157 29.9677C61.2058 30.1422 60.7011 30.2785 60.2018 30.3766L60.2178 30.213Z" fill="#D98841"/>
<path d="M47.5192 15.2053C47.5192 15.0119 47.544 14.7778 47.5937 14.503C47.6532 14.218 47.7672 13.8872 47.9358 13.5106C48.1044 13.134 48.3126 12.793 48.5605 12.4876C48.8085 12.1823 49.1555 11.9227 49.6018 11.709C50.048 11.485 50.5537 11.373 51.119 11.373C52.1205 11.373 52.9783 11.7242 53.6923 12.4265V11.9838C53.6923 11.7089 53.7964 11.5715 54.0046 11.5715C54.203 11.5715 54.3022 11.7089 54.3022 11.9838V13.6938C54.3022 13.9686 54.198 14.106 53.9898 14.106C53.8113 14.106 53.7121 13.9839 53.6923 13.7396C53.6627 13.2714 53.39 12.8642 52.8742 12.5182C52.3684 12.1721 51.7834 11.999 51.119 11.999C50.2959 11.999 49.5919 12.3248 49.0068 12.9762C48.4217 13.6175 48.1292 14.391 48.1292 15.2969V16.381C48.1292 17.297 48.4515 18.0961 49.096 18.7781C49.7406 19.4499 50.4992 19.7857 51.3718 19.7857C51.8875 19.7857 52.3486 19.6789 52.7552 19.4651C53.1618 19.2514 53.5634 18.9002 53.96 18.4116C54.0493 18.3098 54.1385 18.2589 54.2278 18.2589C54.4261 18.2589 54.5253 18.3556 54.5253 18.549C54.5253 18.6406 54.4459 18.7831 54.2873 18.9765C54.1286 19.1699 53.9204 19.3786 53.6626 19.6025C53.4047 19.8163 53.0675 20.0046 52.6511 20.1674C52.2346 20.3303 51.8082 20.4117 51.3718 20.4117C50.3603 20.4117 49.4629 20.0148 48.6796 19.2208C47.9061 18.4167 47.5193 17.5006 47.5193 16.4726L47.5192 15.2053Z" fill="#D98841"/>
<path d="M62.007 15.7705C62.007 15.3125 61.8384 14.9409 61.5012 14.6559C61.1641 14.3607 60.7228 14.2131 60.1774 14.2131C59.7609 14.2131 59.4138 14.2997 59.1362 14.4727C58.8684 14.6356 58.5313 14.9613 58.1247 15.4499L57.9611 15.6484V19.5417H58.6304C58.9081 19.5417 59.0469 19.6435 59.0469 19.8471C59.0469 20.0608 58.9081 20.1677 58.6304 20.1677H56.667C56.3993 20.1677 56.2654 20.0608 56.2654 19.8471C56.2654 19.6435 56.3993 19.5417 56.667 19.5417H57.3512V11.5718H56.548C56.2802 11.5718 56.1464 11.4649 56.1464 11.2512C56.1464 11.0476 56.2802 10.9458 56.548 10.9458H57.9611V14.8697C58.3379 14.4015 58.6998 14.0707 59.0469 13.8773C59.394 13.6839 59.7956 13.5872 60.2517 13.5872C60.9459 13.5872 61.5111 13.7907 61.9475 14.1979C62.3937 14.5949 62.6168 15.1038 62.6168 15.7247V19.5417H63.2862C63.5638 19.5417 63.7026 19.6435 63.7026 19.8471C63.7026 20.0608 63.5638 20.1677 63.2862 20.1677H61.3376C61.0699 20.1677 60.936 20.0608 60.936 19.8471C60.936 19.6435 61.0699 19.5417 61.3376 19.5417H62.007V15.7705Z" fill="#D98841"/>
<path d="M70.1135 11.0067L68.4179 12.5335C68.2988 12.6251 68.2047 12.671 68.1353 12.671C68.0559 12.671 67.9865 12.6404 67.927 12.5793C67.8675 12.5183 67.8377 12.4419 67.8377 12.3503C67.8377 12.2689 67.8972 12.1722 68.0162 12.0602L69.712 10.5334C69.831 10.4418 69.9252 10.396 69.9946 10.396C70.0739 10.396 70.1433 10.4265 70.2029 10.4876C70.2623 10.5487 70.2921 10.625 70.2921 10.7166C70.2921 10.7981 70.2326 10.8948 70.1135 11.0067ZM66.2908 14.3962C66.2908 14.1723 66.628 13.984 67.3022 13.8313C67.9766 13.6684 68.5022 13.587 68.879 13.587C69.5731 13.587 70.1433 13.7652 70.5896 14.1214C71.0457 14.4777 71.2738 14.9255 71.2738 15.465V19.5416H72.0771C72.3448 19.5416 72.4787 19.6434 72.4787 19.8469C72.4787 20.0607 72.3448 20.1676 72.0771 20.1676H70.6639V19.1446C69.7814 19.9894 68.8344 20.4118 67.8229 20.4118C67.1287 20.4118 66.5685 20.2337 66.142 19.8774C65.7156 19.511 65.5024 19.0377 65.5024 18.4575C65.5024 17.7959 65.79 17.2615 66.3651 16.8544C66.9502 16.4371 67.7088 16.2284 68.641 16.2284C69.226 16.2284 69.9004 16.3353 70.6639 16.549V15.465C70.6639 15.0884 70.4954 14.7881 70.1582 14.5642C69.821 14.3301 69.3798 14.213 68.8344 14.213C68.3782 14.213 67.9072 14.2945 67.4213 14.4573C66.9354 14.6202 66.6528 14.7016 66.5734 14.7016C66.4941 14.7016 66.4247 14.6711 66.3651 14.61C66.3155 14.5489 66.2906 14.4777 66.2906 14.3962H66.2908ZM70.6639 18.4575V17.0834C70.069 16.9307 69.4343 16.8544 68.76 16.8544C67.9766 16.8544 67.337 17.0071 66.8412 17.3124C66.3553 17.6076 66.1123 17.9944 66.1123 18.4728C66.1123 18.8698 66.266 19.1904 66.5734 19.4347C66.8808 19.6688 67.2923 19.7859 67.808 19.7859C68.3336 19.7859 68.8145 19.6841 69.2508 19.4805C69.6971 19.2769 70.1681 18.9359 70.6639 18.4575Z" fill="#D98841"/>
<path opacity="0.97" d="M78.5185 18.6502C78.3742 18.5888 78.2154 18.5699 78.0607 18.5957C77.9061 18.6216 77.762 18.6912 77.6453 18.7962L68.5632 27.0003C64.9885 30.2293 66.0287 36.0486 69.6736 37.7849C73.3111 39.5178 78.4903 36.7046 78.6386 31.8744L79.0207 19.4368C79.0258 19.2702 78.9806 19.106 78.8909 18.9656C78.8013 18.8252 78.6715 18.7153 78.5185 18.6502ZM77.3138 21.3222L76.9906 31.8236C76.8788 35.4645 72.7884 37.4386 70.3808 36.2917C67.9805 35.1482 66.9613 30.672 69.6656 28.2294L77.3138 21.3222Z" fill="#D98841"/>
<path d="M77.5228 19.7944L65.3739 45.4482L66.1871 45.8332L78.336 20.1795L77.5228 19.7944Z" fill="#D98841"/>
</g>
<defs>
<clipPath id="clip0">
<rect width="83.3333" height="50" fill="white"/>
</clipPath>
</defs>
</svg>
